# xmcd
#
# Track frame offsets:
#	150
#	11740
#	23575
#	36012
#	48095
#	61642
#	72707
#	85047
#	95267
#	106315
#	118872
#	131610
#	144857
#	158250
#	170265
#	184132
#	197242
#	209670
#	224180
#	235967
#
# Disc length: 3311
#
# Revision: 1
# Processed by: cddbd v1.5.1PL0 Copyright (c) Steve Scherf et al.
# Submitted via: VisiTrax 2.9.5.181 - For more info visit www.synapsa.com
# Normalized: r0:DSETVAR1
#
DISCID=140ced14
DTITLE=Various Artist - mod fave raves vol 2
DYEAR=2001
DGENRE=compilation
TTITLE0=earl van dyke - soul stomp
TTITLE1=the miracles - come on do the jerk
TTITLE2=martha reeves and the vandellas - motoring
TTITLE3=the contours - just a little misunderstanding
TTITLE4=junior walker and the allstars - shoot your shot
TTITLE5=the marvelettes - i'll keep holding on
TTITLE6=the four tops - i can't help myself
TTITLE7=the isley brothers - just aint enough love
TTITLE8=the temptations - i'm losing you
TTITLE9=gladys knight and the pips - just walk in my shoes
TTITLE10=shorty long - function at the junction
TTITLE11=kim weston - take me in your arms
TTITLE12=barbara mcnair - you're gonna love my baby
TTITLE13=the miracles - i gotta dance to keep from crying
TTITLE14=junior walker and the allstars - tune up
TTITLE15=the supremes - love is like an itching in my heart
TTITLE16=martha reeves and the vandellas - heat wave
TTITLE17=the temptations - little miss sweetness
TTITLE18=kim weston - helpless
TTITLE19=chris clark - from head to toe
EXTD=
EXTT0=
EXTT1=
EXTT2=
EXTT3=
EXTT4=
EXTT5=
EXTT6=
EXTT7=
EXTT8=
EXTT9=
EXTT10=
EXTT11=
EXTT12=
EXTT13=
EXTT14=
EXTT15=
EXTT16=
EXTT17=
EXTT18=
EXTT19=
PLAYORDER=
